<?xml version="1.0" standalone="no"?>
<!DOCTYPE svg PUBLIC "-//W3C//DTD SVG 20010904//EN"
 "http://www.w3.org/TR/2001/REC-SVG-20010904/DTD/svg10.dtd">
<svg version="1.0" xmlns="http://www.w3.org/2000/svg"
 width="191.000000pt" height="166.000000pt" viewBox="0 0 191.000000 166.000000"
 preserveAspectRatio="xMidYMid meet">

<g transform="translate(0.000000,166.000000) scale(0.100000,-0.100000)"
fill="#000000" stroke="none">
<path d="M170 1045 c0 -317 3 -485 10 -485 6 0 10 12 10 28 0 30 53 102 75
102 7 0 19 -16 25 -35 18 -56 41 -46 68 29 12 36 22 72 22 80 0 13 28 36 44
36 3 0 6 -54 6 -120 0 -73 4 -120 10 -120 6 0 10 50 10 129 l0 130 53 30 c78
45 120 78 107 86 -5 3 -43 -14 -83 -39 l-72 -45 -3 331 c-1 202 -6 336 -12
342 -7 7 -10 -109 -10 -337 l0 -347 -42 -26 c-24 -14 -56 -35 -72 -47 -20 -14
-31 -17 -34 -9 -2 7 -10 12 -19 12 -10 0 -12 -6 -8 -20 5 -14 -2 -29 -24 -50
-16 -17 -32 -30 -35 -30 -3 0 -6 194 -6 430 0 280 -3 430 -10 430 -7 0 -10
-168 -10 -485z m180 -304 c0 -5 -8 -26 -17 -47 l-16 -39 -10 34 c-9 29 -8 36
8 47 22 16 35 18 35 5z"/>
<path d="M700 1286 l0 -244 -47 -46 c-26 -24 -44 -48 -40 -52 4 -4 22 7 40 24
18 18 36 32 40 32 4 0 7 -99 7 -220 0 -140 4 -220 10 -220 6 0 10 85 10 235
l0 234 58 34 c62 36 172 78 184 71 5 -3 8 -17 8 -31 0 -18 -17 -44 -54 -83
-55 -58 -74 -96 -62 -126 5 -14 16 -16 61 -10 l55 6 0 -165 c0 -103 4 -165 10
-165 6 0 10 64 10 173 l0 172 59 32 c33 18 80 49 105 68 25 19 48 35 51 35 3
0 5 -108 5 -240 0 -153 4 -240 10 -240 6 0 10 89 10 247 l0 246 68 71 c38 39
76 82 85 95 l17 25 25 -24 c14 -13 27 -22 28 -19 2 2 9 13 15 24 9 15 11 -65
12 -322 0 -222 4 -343 10 -343 6 0 10 131 10 373 l0 372 39 88 c40 88 40 99 5
72 -33 -25 -44 -18 -44 25 0 22 -4 40 -10 40 -5 0 -10 -25 -10 -55 l0 -54 -75
-51 c-41 -28 -75 -55 -75 -60 0 -5 11 -17 25 -28 14 -11 25 -24 25 -29 0 -16
-131 -153 -141 -147 -5 3 -9 99 -9 215 0 138 -3 208 -10 204 -6 -4 -10 -92
-10 -230 l0 -224 -53 -39 c-29 -22 -78 -54 -110 -72 l-57 -32 0 62 c0 51 4 67
26 96 29 37 26 63 -6 71 -19 5 -20 14 -20 184 0 108 -4 180 -10 184 -7 4 -10
-58 -10 -178 0 -194 -1 -197 -46 -197 -10 0 -125 -51 -196 -88 -5 -2 -8 100
-8 227 0 142 -4 232 -10 236 -7 4 -10 -78 -10 -239z m314 -155 c3 -4 -1 -17
-9 -27 -14 -18 -14 -18 -15 9 0 26 13 36 24 18z m-46 -158 l-3 -58 -43 -9
c-49 -10 -57 -6 -47 24 8 26 73 100 87 100 5 0 8 -26 6 -57z"/>
<path d="M1737 1523 c-12 -11 -8 -963 3 -963 7 0 10 168 10 485 0 267 -1 485
-3 485 -2 0 -7 -3 -10 -7z"/>
<path d="M550 696 c0 -62 3 -76 15 -76 13 0 15 12 13 72 -2 46 -7 73 -15 76
-10 3 -13 -16 -13 -72z"/>
<path d="M792 758 c-28 -28 -11 -58 43 -75 17 -5 30 -16 30 -24 0 -21 -47 -24
-61 -4 -9 11 -14 13 -19 5 -12 -19 21 -43 57 -42 65 2 71 67 7 88 -19 6 -35
19 -37 28 -4 19 20 21 48 4 24 -15 37 -4 20 17 -15 18 -71 20 -88 3z"/>
<path d="M1040 695 c0 -74 16 -105 22 -42 3 28 6 32 33 32 27 0 30 -4 33 -32
2 -21 9 -33 18 -33 11 0 14 16 14 75 0 60 -3 75 -15 75 -10 0 -15 -10 -15 -30
0 -28 -3 -30 -35 -30 -32 0 -35 2 -35 30 0 17 -4 30 -10 30 -6 0 -10 -32 -10
-75z"/>
<path d="M1341 753 c-9 -17 -51 -124 -51 -130 0 -2 7 -3 15 -3 8 0 15 7 15 15
0 11 11 15 40 15 29 0 40 -4 40 -15 0 -8 7 -15 15 -15 19 0 19 2 -13 79 -29
69 -45 83 -61 54z m33 -45 c9 -35 8 -38 -14 -38 -20 0 -25 15 -14 44 9 23 21
20 28 -6z"/>
<path d="M1580 695 l0 -75 50 0 c58 0 68 17 13 22 l-38 3 -3 63 c-4 88 -22 78
-22 -13z"/>
</g>
</svg>
